# File created by Blade
# Date/Time:  Thu Sep 25 17:43:48 2014
# Frame Rate: 120.000 fps
#------------------------------------------------------
:FULLY-SPECIFIED
:DEGREES
457
root -20.005066 32.903040 -6.337345 -351.127588 14.174816 -1.080519
Spine 2.089173 7.565555 -1.114421
Head 19.649090 15.065605 10.924676
LeftShoulder -17.581084 17.416249 26.742736
LeftArm 25.329314 -21.862308 -25.681497
LeftForeArm 9.057013 -0.000000 14.429833
LeftHand -30.493894 -0.000000 4.687766
LeftHandThumb1 -26.253704 0.000000 33.147579
RightShoulder -19.124589 12.975246 -38.666229
RightArm -10.423294 5.759272 35.543114
RightForeArm -27.841294 0.000000 19.431072
RightHand -15.477726 -0.000000 1.117293
RightHandThumb1 -24.326973 -0.000000 -32.862282
LeftUpLeg -7.356323 -8.210849 0.307314
LeftLeg -1.280097 -0.000000 0.000000
LeftFoot -13.820286 12.343500 336.323778
LeftToeBase 6.249206 -0.000000 -0.000000
RightUpLeg -8.683638 -12.908074 3.722724
RightLeg 4.924949 -0.000000 -0.000000
RightFoot -9.814719 -3.661498 -5.741266
RightToeBase 2.898878 -0.000000 -0.000000
458
root -20.000448 32.900214 -6.335318 -351.044983 14.134615 -1.058125
Spine 2.052553 7.541098 -1.123680
Head 19.682818 15.050841 10.933974
LeftShoulder -17.492169 17.544974 26.624156
LeftArm 25.301433 -21.931870 -25.646528
LeftForeArm 8.900254 -0.000000 14.562805
LeftHand -30.724934 0.000000 5.082507
LeftHandThumb1 -26.253704 0.000000 33.147579
RightShoulder -19.153901 12.975098 -38.649143
RightArm -10.377707 5.728921 35.542803
RightForeArm -27.815227 0.000000 19.493133
RightHand -15.449001 -0.000000 1.134948
RightHandThumb1 -24.326973 -0.000000 -32.862282
LeftUpLeg -7.500362 -8.314662 0.291773
LeftLeg -1.150410 -0.000000 0.000000
LeftFoot -14.029391 12.585626 336.192713
LeftToeBase 6.591771 -0.000000 -0.000000
RightUpLeg -8.789462 -12.873197 3.702211
RightLeg 4.991775 -0.000000 -0.000000
RightFoot -9.860495 -3.587832 -5.681403
RightToeBase 2.862221 -0.000000 -0.000000
459
root -19.994226 32.897882 -6.333644 -350.957933 14.080925 -1.025091
Spine 2.035087 7.520866 -1.142479
Head 19.645632 14.969736 10.879457
LeftShoulder -17.467949 17.653629 26.514942
LeftArm 25.300584 -22.218505 -25.831978
LeftForeArm 8.985675 -0.000000 14.878333
LeftHand -30.967607 -0.000000 5.241869
LeftHandThumb1 -26.253704 0.000000 33.147579
RightShoulder -19.217004 12.928995 -38.603268
RightArm -10.244733 5.705546 35.558096
RightForeArm -27.818256 -0.000000 19.521025
RightHand -15.437423 -0.000000 0.987898
RightHandThumb1 -24.326973 -0.000000 -32.862282
LeftUpLeg -7.651901 -8.403464 0.257974
LeftLeg -0.994657 -0.000000 0.000000
LeftFoot -14.135686 12.730975 336.228719
LeftToeBase 6.521480 -0.000000 -0.000000
RightUpLeg -8.911754 -12.800291 3.664024
RightLeg 5.101663 -0.000000 -0.000000
RightFoot -9.941545 -3.638258 -5.674820
RightToeBase 2.938388 -0.000000 -0.000000
460
root -19.986231 32.895119 -6.334078 -350.847433 14.049354 -0.986490
Spine 1.971680 7.444954 -1.145631
Head 19.697502 15.023787 10.842416
LeftShoulder -17.517015 17.823489 26.377609
LeftArm 25.430212 -22.474359 -26.074907
LeftForeArm 9.026362 -0.000000 15.083413
LeftHand -31.129754 0.000000 5.820115
LeftHandThumb1 -26.253704 0.000000 33.147579
RightShoulder -19.213515 12.968360 -38.579393
RightArm -10.214729 5.648629 35.546546
RightForeArm -27.862407 -0.000000 19.609375
RightHand -15.382239 0.000000 0.914757
RightHandThumb1 -24.326973 -0.000000 -32.862282
LeftUpLeg -7.856702 -8.421466 0.205025
LeftLeg -0.762042 -0.000000 0.000000
LeftFoot -14.261912 12.900034 336.358984
LeftToeBase 6.620176 -0.000000 -0.000000
RightUpLeg -9.058732 -12.703427 3.621075
RightLeg 5.205450 -0.000000 -0.000000
RightFoot -9.993933 -3.708870 -5.603157
RightToeBase 2.876669 -0.000000 -0.000000
461
root -19.978513 32.892530 -6.331744 -350.769523 14.002374 -0.957182
Spine 1.956426 7.395298 -1.132619
Head 19.699136 15.042268 10.737719
LeftShoulder -17.532751 17.816598 26.170818
LeftArm 25.397344 -22.513100 -26.059105
LeftForeArm 8.681636 -0.000000 15.306223
LeftHand -31.252863 -0.000000 6.292450
LeftHandThumb1 -26.253704 0.000000 33.147579
RightShoulder -19.236844 13.013432 -38.525496
RightArm -10.160104 5.515304 35.520339
RightForeArm -27.887424 -0.000000 19.706161
RightHand -15.386802 -0.000000 0.748550
RightHandThumb1 -24.326973 -0.000000 -32.862282
LeftUpLeg -8.047329 -8.232730 0.123339
LeftLeg -0.481966 -0.000000 0.000000
LeftFoot -14.323283 12.860152 336.522898
LeftToeBase 6.667951 -0.000000 -0.000000
RightUpLeg -9.185424 -12.646408 3.589483
RightLeg 5.331340 -0.000000 -0.000000
RightFoot -10.056587 -3.772314 -5.655963
RightToeBase 2.892067 -0.000000 -0.000000
462
root -19.963886 32.890132 -6.326389 -350.714594 13.946296 -0.906152
Spine 1.961301 7.367084 -1.130251
Head 19.770879 15.064570 10.690702
LeftShoulder -17.532545 17.867840 26.035768
LeftArm 25.391747 -22.807135 -26.360634
LeftForeArm 8.738939 -0.000000 15.752873
LeftHand -31.582912 -0.000000 6.662775
LeftHandThumb1 -26.253704 0.000000 33.147579
RightShoulder -19.253857 13.025583 -38.450052
RightArm -10.097155 5.353826 35.488254
RightForeArm -27.891852 -0.000000 19.790534
RightHand -15.345930 -0.000000 0.504343
RightHandThumb1 -24.326973 -0.000000 -32.862282
LeftUpLeg -8.170627 -8.102307 0.014524
LeftLeg -0.282304 -0.000000 0.000000
LeftFoot -14.350601 12.835130 336.676874
LeftToeBase 6.704624 -0.000000 -0.000000
RightUpLeg -9.284385 -12.613923 3.516670
RightLeg 5.478356 -0.000000 -0.000000
RightFoot -10.153037 -3.764872 -5.589100
RightToeBase 2.882299 -0.000000 -0.000000
463
root -19.954943 32.887612 -6.324330 -350.653803 13.873940 -0.892353
Spine 1.982867 7.364243 -1.077817
Head 19.711528 15.041358 10.544936
LeftShoulder -17.563646 17.933421 25.813617
LeftArm 25.415437 -23.068769 -26.575598
LeftForeArm 8.466332 -0.000000 16.125790
LeftHand -31.618136 -0.000000 7.029572
LeftHandThumb1 -26.253704 0.000000 33.147579
RightShoulder -19.281122 13.017804 -38.372241
RightArm -10.058608 5.256525 35.459886
RightForeArm -28.055398 -0.000000 20.001547
RightHand -15.559755 -0.000000 0.402388
RightHandThumb1 -24.326973 -0.000000 -32.862282
LeftUpLeg -8.357590 -7.849708 -0.060972
LeftLeg 0.033726 -0.000000 -0.000000
LeftFoot -14.422387 12.715419 336.867254
LeftToeBase 6.848099 -0.000000 -0.000000
RightUpLeg -9.404842 -12.524334 3.490286
RightLeg 5.620436 -0.000000 -0.000000
RightFoot -10.223512 -3.794068 -5.552467
RightToeBase 2.902047 -0.000000 -0.000000
